<?xml version="1.0" encoding="UTF-8"?>
<svg width="32px" height="32px" viewBox="0 0 32 32" version="1.1" xmlns="http://www.w3.org/2000/svg" xmlns:xlink="http://www.w3.org/1999/xlink">
    <title>tsconfig copy</title>
    <g id="tsconfig-copy" stroke="none" stroke-width="1" fill="none" fill-rule="evenodd">
        <g id="css" transform="translate(1, 2)" fill-rule="nonzero">
            <path d="M2.28187919,28 L3.3557047,21.9726027 L0,21.9726027 L0,18.8082192 L4.02684564,18.8082192 L4.69798658,15.0410959 L1.20805369,15.0410959 L1.20805369,11.8767123 L5.36912752,11.8767123 L6.44295302,6 L10.2013423,6 L9.12751678,11.8767123 L12.885906,11.8767123 L13.9597315,6 L17.7181208,6 L16.6442953,11.8767123 L20,11.8767123 L20,15.0410959 L16.1073826,15.0410959 L15.3020134,18.8082192 L18.7919463,18.8082192 L18.7919463,21.9726027 L14.7651007,21.9726027 L13.6912752,28 L9.93288591,28 L11.0067114,21.9726027 L7.24832215,21.9726027 L6.17449664,28 L2.28187919,28 Z M11.5436242,18.8082192 L12.2147651,15.0410959 L8.45637584,15.0410959 L7.7852349,18.8082192 L11.5436242,18.8082192 Z" id="Shape" fill="#529BBA"></path>
            <g id="hubspot-logo" transform="translate(3, 0)" fill="#FF7A59">
                <path d="M21.4987593,9.21944252 L21.4987593,5.88517179 C22.4403522,5.46481654 23.0438788,4.56363844 23.0486685,3.57086742 L23.0486685,3.4943643 C23.0486685,2.07628786 21.8451553,0.926706885 20.3606686,0.926706885 L20.280458,0.926706885 C18.795853,0.926706885 17.5923398,2.07628786 17.5923398,3.4943643 L17.5923398,3.57086742 C17.5971295,4.56363844 18.2006561,5.46481654 19.142249,5.88517179 L19.142249,9.21944252 C17.8164527,9.41337875 16.5678416,9.93848507 15.5228366,10.7415949 L5.94938795,3.61900676 C6.01764973,3.38362122 6.05325943,3.14156848 6.05728178,2.89861173 C6.05967361,1.72837893 5.32372007,0.672034297 4.19268141,0.222273473 C3.06164275,-0.227487352 1.75832712,0.0179359514 0.890621317,0.844074116 C0.0229155142,1.67021228 -0.238247376,2.9143208 0.228943103,3.99612802 C0.696133581,5.07793523 1.79964357,5.78433129 3.02477876,5.78584203 C3.54887016,5.78348008 4.063143,5.6498314 4.51624545,5.39824125 L13.9433513,12.4052271 C12.2101882,14.9060997 12.2565636,18.1654493 14.060118,20.6205556 L11.1928865,23.3600908 C10.9610094,23.2893508 10.7196679,23.2517208 10.4763153,23.2485567 C9.10315324,23.2496867 7.99073464,24.3133853 7.99108955,25.6250128 C7.99144446,26.9365273 9.10457289,27.9996608 10.4776166,28 C11.8507787,28.0003388 12.9643803,26.9377703 12.9655634,25.6261428 C12.9623282,25.3937543 12.9229358,25.1631167 12.8486784,24.9417958 L15.6851506,22.2314154 C18.2195911,24.0950632 21.7004687,24.2556407 24.4111831,22.6339326 C27.1217792,21.0121115 28.4897358,17.9504043 27.8402433,14.9589851 C27.1907508,11.9674529 24.6610425,9.67789627 21.4987593,9.21932952 M20.3958149,20.274459 C18.9860732,20.3122365 17.6668778,19.5847718 16.9508294,18.3747365 C16.234781,17.1647012 16.234781,15.6628849 16.9508294,14.4528496 C17.6668778,13.2428143 18.9860732,12.5153496 20.3958149,12.5531271 C22.4825617,12.6258974 24.1367616,14.3312829 24.137931,16.4109987 C24.1388659,18.4904816 22.4864196,20.1976136 20.3996727,20.2724797" id="Shape"></path>
            </g>
        </g>
    </g>
</svg>