<?xml version="1.0" encoding="UTF-8"?>
<svg width="32px" height="32px" viewBox="0 0 32 32" version="1.1" xmlns="http://www.w3.org/2000/svg" xmlns:xlink="http://www.w3.org/1999/xlink">
    <title>hs-css-dark</title>
    <g id="hs-css-dark" stroke="none" stroke-width="1" fill="none" fill-rule="evenodd">
        <g id="hubspot-logo" transform="translate(0, 3)" fill="#FF7A59" fill-rule="nonzero">
            <path d="M21.9631336,11.5609109 L21.9631336,8.46480239 C22.8374699,8.07447252 23.3978874,7.23766428 23.402335,6.31580547 L23.402335,6.24476686 C23.402335,4.92798159 22.284787,3.86051354 20.9063351,3.86051354 L20.8318539,3.86051354 C19.4532921,3.86051354 18.3357441,4.92798159 18.3357441,6.24476686 L18.3357441,6.31580547 C18.3401917,7.23766428 18.9006092,8.07447252 19.7749455,8.46480239 L19.7749455,11.5609109 C18.543849,11.7409946 17.3844243,12.2285933 16.4140626,12.9743381 L7.52443166,6.36050629 C7.5878176,6.14193399 7.62088375,5.91717074 7.6246188,5.69156804 C7.62683978,4.6049233 6.94345435,3.62403185 5.89320416,3.2063968 C4.84295398,2.78876174 3.63273233,3.01665481 2.82700551,3.78378311 C2.02127869,4.55091141 1.77877029,5.70615504 2.21259002,6.71069031 C2.64640975,7.71522558 3.6710976,8.37116478 4.80872313,8.37256761 C5.29537944,8.37037437 5.7729185,8.24627203 6.19365649,8.0126526 L14.9473976,14.5191395 C13.3380319,16.8413783 13.3810948,19.8679173 15.0558238,22.1476588 L12.3933946,24.6915129 C12.1780802,24.6258258 11.9539774,24.5908836 11.728007,24.5879456 C10.452928,24.5889949 9.41996788,25.576715 9.42029744,26.7946548 C9.420627,28.0124897 10.4542463,28.9996851 11.7292154,29 C13.0042945,29.0003147 14.0383532,28.0136439 14.0394517,26.7957041 C14.0364476,26.5799147 13.999869,26.3657513 13.9309156,26.160239 L16.5647827,23.6434572 C18.9181917,25.3739874 22.1504352,25.523095 24.6675272,24.0172232 C27.1845092,22.5112464 28.4547547,19.6682327 27.8516545,16.8904862 C27.2485543,14.1126349 24.8995395,11.986618 21.9631336,11.560806 M20.6087072,21.9987285 C19.3311288,22.0329644 18.135608,21.3736995 17.4866891,20.277105 C16.8377703,19.1805105 16.8377703,17.8194895 17.4866891,16.722895 C18.135608,15.6263005 19.3311288,14.9670356 20.6087072,15.0012715 C22.4998216,15.0672195 23.9989402,16.6127252 24,18.4974676 C24.0008472,20.381999 22.5033177,21.9290874 20.6122034,21.9969348" id="Shape"></path>
        </g>
        <g id="css" transform="translate(18, 18)" fill="#4477B8" fill-rule="nonzero">
            <path d="M1.7114094,15 L2.51677852,10.890411 L0,10.890411 L0,8.73287671 L3.02013423,8.73287671 L3.52348993,6.16438356 L0.906040268,6.16438356 L0.906040268,4.00684932 L4.02684564,4.00684932 L4.83221477,0 L7.65100671,0 L6.84563758,4.00684932 L9.66442953,4.00684932 L10.4697987,0 L13.2885906,0 L12.4832215,4.00684932 L15,4.00684932 L15,6.16438356 L12.0805369,6.16438356 L11.4765101,8.73287671 L14.0939597,8.73287671 L14.0939597,10.890411 L11.0738255,10.890411 L10.2684564,15 L7.44966443,15 L8.25503356,10.890411 L5.43624161,10.890411 L4.63087248,15 L1.7114094,15 Z M8.65771812,8.73287671 L9.16107383,6.16438356 L6.34228188,6.16438356 L5.83892617,8.73287671 L8.65771812,8.73287671 Z" id="Shape"></path>
        </g>
    </g>
</svg>